<?xml version="1.0" standalone="no"?>
<!DOCTYPE svg PUBLIC "-//W3C//DTD SVG 20010904//EN"
 "http://www.w3.org/TR/2001/REC-SVG-20010904/DTD/svg10.dtd">
<svg version="1.0" xmlns="http://www.w3.org/2000/svg"
 width="400.000000pt" height="400.000000pt" viewBox="0 0 400.000000 400.000000"
 preserveAspectRatio="xMidYMid meet">

<g transform="translate(0.000000,400.000000) scale(0.100000,-0.100000)"
fill="#000000" stroke="none">
<path d="M0 2000 l0 -2000 2000 0 2000 0 0 2000 0 2000 -2000 0 -2000 0 0
-2000z m2533 946 c18 -7 42 -24 54 -37 20 -22 123 -194 123 -206 0 -2 -20 -25
-45 -50 -137 -136 -69 -362 121 -404 46 -10 63 -10 115 5 34 9 63 15 64 14 27
-33 117 -210 121 -239 8 -47 -15 -116 -49 -146 -19 -18 -1333 -780 -1426 -827
-49 -26 -113 -23 -165 8 -35 20 -55 45 -103 127 l-60 102 40 40 c111 111 103
292 -16 378 -68 49 -176 60 -259 25 -13 -6 -28 14 -75 96 -51 92 -58 109 -58
159 0 106 -28 86 725 521 371 214 699 403 729 419 60 32 113 37 164 15z"/>
<path d="M1815 2354 c-264 -152 -490 -286 -502 -297 -42 -38 -33 -64 138 -361
89 -155 171 -291 182 -303 13 -15 32 -23 51 -23 22 0 168 79 516 280 267 154
491 287 498 297 6 9 12 28 12 42 0 35 -333 611 -362 628 -13 7 -30 12 -38 13
-9 0 -232 -124 -495 -276z m620 -91 c72 -125 131 -234 133 -242 2 -12 -120
-86 -427 -263 -236 -137 -433 -248 -438 -248 -16 0 -283 474 -273 484 19 19
845 494 860 495 9 0 65 -86 145 -226z"/>
</g>
</svg>
